<svg width="24" height="24" viewBox="0 0 24 24" fill="none" xmlns="http://www.w3.org/2000/svg">
<path d="M13.2932 8.70692C13.1111 8.51832 13.0103 8.26572 13.0125 8.00352C13.0148 7.74132 13.12 7.49051 13.3054 7.3051C13.4908 7.11969 13.7416 7.01452 14.0038 7.01224C14.266 7.00997 14.5186 7.11076 14.7072 7.29292L18.7072 11.2929C18.8947 11.4804 19 11.7348 19 11.9999C19 12.2651 18.8947 12.5194 18.7072 12.7069L14.7072 16.7069C14.5186 16.8891 14.266 16.9899 14.0038 16.9876C13.7416 16.9853 13.4908 16.8801 13.3054 16.6947C13.12 16.5093 13.0148 16.2585 13.0125 15.9963C13.0103 15.7341 13.1111 15.4815 13.2932 15.2929L15.5862 12.9999H6.00021C5.735 12.9999 5.48064 12.8946 5.29311 12.707C5.10557 12.5195 5.00021 12.2651 5.00021 11.9999C5.00021 11.7347 5.10557 11.4803 5.29311 11.2928C5.48064 11.1053 5.735 10.9999 6.00021 10.9999H15.5862L13.2932 8.70692Z" fill="black"/>
</svg>
