<svg width="50" height="50" viewBox="0 0 50 50" fill="none" xmlns="http://www.w3.org/2000/svg">
<path fill-rule="evenodd" clip-rule="evenodd" d="M16.9715 12.5316V10.417C16.9715 8.34499 17.7946 6.35785 19.2598 4.89272C20.7249 3.42759 22.712 2.60449 24.784 2.60449C26.856 2.60449 28.8432 3.42759 30.3083 4.89272C31.7734 6.35785 32.5965 8.34499 32.5965 10.417V12.5316C35.2778 12.6128 36.9195 12.9003 38.1715 13.9399C39.907 15.3816 40.3653 17.8191 41.2799 22.6962L42.8424 31.0295C44.1278 37.8878 44.7695 41.317 42.8965 43.5753C41.0215 45.8337 37.532 45.8337 30.5549 45.8337H19.0132C12.034 45.8337 8.54653 45.8337 6.67153 43.5753C4.79653 41.317 5.44236 37.8878 6.7257 31.0295L8.2882 22.6962C9.20486 17.8212 9.66111 15.3816 11.3965 13.9399C12.6486 12.9003 14.2903 12.6128 16.9715 12.5316ZM20.0965 10.417C20.0965 9.17379 20.5904 7.98151 21.4695 7.10243C22.3485 6.22335 23.5408 5.72949 24.784 5.72949C26.0272 5.72949 27.2195 6.22335 28.0986 7.10243C28.9777 7.98151 29.4715 9.17379 29.4715 10.417V12.5003H20.0965V10.417Z" fill="black"/>
</svg>
