<svg width="50" height="50" viewBox="0 0 50 50" fill="none" xmlns="http://www.w3.org/2000/svg">
<path d="M33.6233 4.68751C31.7725 4.68678 29.948 5.12561 28.2999 5.96787C26.6519 6.81014 25.2274 8.03176 24.1438 9.53218C23.0602 11.0326 22.3484 12.7689 22.067 14.5982C21.7857 16.4275 21.9428 18.2975 22.5254 20.0542L5.76914 36.8146C5.07655 37.5076 4.6875 38.4473 4.6875 39.4271C4.6875 40.4069 5.07655 41.3466 5.76914 42.0396L7.9608 44.2313C8.30386 44.5748 8.71126 44.8473 9.15972 45.0332C9.60817 45.2191 10.0889 45.3148 10.5743 45.3148C11.0598 45.3148 11.5405 45.2191 11.989 45.0332C12.4374 44.8473 12.8448 44.5748 13.1879 44.2313L29.9462 27.4708C31.9467 28.1352 34.0896 28.2462 36.148 27.7921C38.2064 27.338 40.1037 26.3356 41.6389 24.8911C43.1741 23.4467 44.2901 21.6139 44.8686 19.5869C45.4472 17.56 45.4668 15.4143 44.9254 13.3771C44.3712 11.2854 41.9212 11.0771 40.6921 12.3063L37.1025 15.8938C36.9071 16.0966 36.6733 16.2585 36.4147 16.3699C36.1561 16.4813 35.8779 16.5401 35.5963 16.5427C35.3147 16.5454 35.0354 16.4919 34.7747 16.3853C34.5141 16.2788 34.2773 16.1214 34.0781 15.9222C33.879 15.7231 33.7216 15.4863 33.6151 15.2256C33.5085 14.965 33.455 14.6857 33.4577 14.4041C33.4603 14.1225 33.5191 13.8443 33.6305 13.5857C33.7419 13.3271 33.9038 13.0933 34.1066 12.8979L37.6941 9.30834C38.9233 8.07917 38.715 5.62918 36.6212 5.07501C35.6436 4.81656 34.6366 4.6863 33.6254 4.68751" fill="black"/>
</svg>
