<svg width="50" height="50" viewBox="0 0 50 50" fill="none" xmlns="http://www.w3.org/2000/svg">
<path d="M38.1818 46.8751C36.2756 46.8751 33.5978 46.1856 29.5881 43.9454C24.7121 41.211 20.9406 38.6866 16.091 33.8497C11.4152 29.1768 9.13982 26.1514 5.95525 20.3565C2.3576 13.8135 2.97088 10.3839 3.65643 8.91804C4.47283 7.16609 5.67791 6.11823 7.23553 5.0782C8.12024 4.49854 9.05649 4.00165 10.0324 3.59382C10.1301 3.55183 10.2209 3.51179 10.3019 3.47566C10.7853 3.25788 11.5178 2.92878 12.4455 3.28034C13.0646 3.51277 13.6174 3.98835 14.4826 4.84284C16.257 6.59284 18.6818 10.4903 19.5763 12.4044C20.1769 13.6944 20.5744 14.546 20.5754 15.501C20.5754 16.6192 20.0129 17.4815 19.3303 18.4122C19.2023 18.587 19.0754 18.754 18.9523 18.9161C18.2092 19.8926 18.0461 20.1749 18.1535 20.6788C18.3713 21.6915 19.9953 24.7061 22.6642 27.3692C25.3332 30.0323 28.2609 31.5538 29.2775 31.7706C29.8029 31.8829 30.091 31.713 31.0988 30.9434C31.2433 30.8331 31.3918 30.7188 31.547 30.6046C32.5881 29.8301 33.4103 29.2823 34.5021 29.2823H34.508C35.4582 29.2823 36.2717 29.6944 37.6193 30.3741C39.3771 31.2608 43.3918 33.6544 45.1525 35.4307C46.009 36.294 46.4865 36.8448 46.7199 37.463C47.0715 38.3936 46.7404 39.1231 46.5246 39.6114C46.4885 39.6925 46.4484 39.7813 46.4064 39.88C45.9954 40.8541 45.4955 41.7884 44.9133 42.671C43.8752 44.2237 42.8234 45.4258 41.0676 46.2432C40.1659 46.6698 39.1792 46.8858 38.1818 46.8751Z" fill="black"/>
</svg>
