<svg width="50" height="50" viewBox="0 0 50 50" fill="none" xmlns="http://www.w3.org/2000/svg">
<g clip-path="url(#clip0_1568_10205)">
<path d="M3.125 0H46.875C48.5917 0 50 1.40833 50 3.125V34.25C50 35.9667 48.5917 37.375 46.875 37.375H23.5625L12.0292 48.9083C11.8137 49.13 11.5367 49.282 11.2339 49.3446C10.9311 49.4073 10.6166 49.3777 10.3308 49.2597C10.045 49.1417 9.8012 48.9407 9.63082 48.6828C9.46044 48.4248 9.37133 48.1216 9.375 47.8125V37.375H3.125C2.2962 37.375 1.50134 37.0458 0.915291 36.4597C0.32924 35.8737 0 35.0788 0 34.25L0 3.125C0 1.40833 1.40833 0 3.125 0ZM12.5 22.9167C13.6051 22.9167 14.6649 22.4777 15.4463 21.6963C16.2277 20.9149 16.6667 19.8551 16.6667 18.75C16.6667 17.6449 16.2277 16.5851 15.4463 15.8037C14.6649 15.0223 13.6051 14.5833 12.5 14.5833C11.3949 14.5833 10.3351 15.0223 9.55372 15.8037C8.77232 16.5851 8.33333 17.6449 8.33333 18.75C8.33333 19.8551 8.77232 20.9149 9.55372 21.6963C10.3351 22.4777 11.3949 22.9167 12.5 22.9167ZM25 22.9167C26.1051 22.9167 27.1649 22.4777 27.9463 21.6963C28.7277 20.9149 29.1667 19.8551 29.1667 18.75C29.1667 17.6449 28.7277 16.5851 27.9463 15.8037C27.1649 15.0223 26.1051 14.5833 25 14.5833C23.8949 14.5833 22.8351 15.0223 22.0537 15.8037C21.2723 16.5851 20.8333 17.6449 20.8333 18.75C20.8333 19.8551 21.2723 20.9149 22.0537 21.6963C22.8351 22.4777 23.8949 22.9167 25 22.9167ZM41.6667 18.75C41.6667 17.6449 41.2277 16.5851 40.4463 15.8037C39.6649 15.0223 38.6051 14.5833 37.5 14.5833C36.3949 14.5833 35.3351 15.0223 34.5537 15.8037C33.7723 16.5851 33.3333 17.6449 33.3333 18.75C33.3333 19.8551 33.7723 20.9149 34.5537 21.6963C35.3351 22.4777 36.3949 22.9167 37.5 22.9167C38.6051 22.9167 39.6649 22.4777 40.4463 21.6963C41.2277 20.9149 41.6667 19.8551 41.6667 18.75Z" fill="black"/>
</g>
<defs>
<clipPath id="clip0_1568_10205">
<rect width="50" height="50" fill="white"/>
</clipPath>
</defs>
</svg>
