<svg width="24" height="24" viewBox="0 0 24 24" fill="none" xmlns="http://www.w3.org/2000/svg">
<path d="M19.071 13.1422L13.414 18.8002C13.039 19.1752 12.5304 19.3858 12 19.3858C11.4697 19.3858 10.9611 19.1752 10.586 18.8002L4.92904 13.1432C4.01091 12.2017 3.50071 10.9363 3.50895 9.6212C3.51719 8.30612 4.04321 7.04723 4.97307 6.11724C5.90292 5.18726 7.16173 4.66106 8.47681 4.65263C9.7919 4.6442 11.0573 5.15423 11.999 6.07223C12.9367 5.13442 14.2085 4.60752 15.5347 4.60742C16.1913 4.60738 16.8416 4.73667 17.4483 4.98791C18.0549 5.23916 18.6062 5.60744 19.0705 6.07173C19.5349 6.53602 19.9033 7.08722 20.1546 7.69387C20.4059 8.30051 20.5353 8.95072 20.5353 9.60737C20.5354 10.264 20.4061 10.9143 20.1549 11.5209C19.9036 12.1276 19.5353 12.6779 19.071 13.1422Z" stroke="black" stroke-width="2" stroke-linecap="round" stroke-linejoin="round"/>
</svg>
