<svg width="24" height="24" viewBox="0 0 24 24" fill="none" xmlns="http://www.w3.org/2000/svg">
<path opacity="0.16" d="M19.0712 13.142L13.4142 18.8C13.0391 19.175 12.5305 19.3856 12.0002 19.3856C11.4699 19.3856 10.9613 19.175 10.5862 18.8L4.9292 13.143C4.46157 12.6795 4.09011 12.1281 3.83613 11.5206C3.58216 10.9131 3.45067 10.2614 3.44923 9.60299C3.44779 8.94454 3.57642 8.29229 3.82773 7.68368C4.07904 7.07508 4.44809 6.5221 4.91368 6.05651C5.37928 5.59091 5.93225 5.22186 6.54086 4.97055C7.14947 4.71924 7.80172 4.59061 8.46017 4.59205C9.11862 4.59349 9.7703 4.72498 10.3778 4.97895C10.9853 5.23293 11.5367 5.60439 12.0002 6.07202C12.9418 5.1539 14.2071 4.64369 15.5222 4.65193C16.8373 4.66017 18.0962 5.18619 19.0262 6.11605C19.9562 7.0459 20.4824 8.30472 20.4908 9.6198C20.4992 10.9349 19.9892 12.2003 19.0712 13.142Z" fill="black"/>
<path d="M19.072 13.142L13.415 18.8C13.0399 19.1749 12.5313 19.3856 12.001 19.3856C11.4706 19.3856 10.962 19.1749 10.587 18.8L4.92996 13.143C4.01183 12.2014 3.50162 10.936 3.50986 9.62096C3.5181 8.30587 4.04413 7.04699 4.97398 6.117C5.90384 5.18701 7.16265 4.66081 8.47773 4.65239C9.79281 4.64396 11.0583 5.15399 12 6.07198C12.9376 5.13418 14.2094 4.60727 15.5356 4.60718C16.1923 4.60713 16.8425 4.73642 17.4492 4.98767C18.0559 5.23891 18.6071 5.60719 19.0715 6.07148C19.5358 6.53577 19.9042 7.08698 20.1555 7.69362C20.4068 8.30027 20.5362 8.95048 20.5363 9.60713C20.5363 10.2638 20.407 10.914 20.1558 11.5207C19.9045 12.1274 19.5362 12.6776 19.072 13.142Z" stroke="black" stroke-width="2" stroke-linecap="round" stroke-linejoin="round"/>
</svg>
