<svg width="80" height="80" viewBox="0 0 80 80" fill="none" xmlns="http://www.w3.org/2000/svg">
<path d="M19.9987 73.3337C18.1654 73.3337 16.5965 72.6814 15.292 71.377C13.9876 70.0725 13.3343 68.5025 13.332 66.667V26.667C13.332 24.8337 13.9854 23.2648 15.292 21.9603C16.5987 20.6559 18.1676 20.0025 19.9987 20.0003H26.6654C26.6654 16.3337 27.9709 13.1948 30.582 10.5837C33.1931 7.97255 36.332 6.66699 39.9987 6.66699C43.6654 6.66699 46.8043 7.97255 49.4154 10.5837C52.0265 13.1948 53.332 16.3337 53.332 20.0003H59.9987C61.832 20.0003 63.402 20.6537 64.7087 21.9603C66.0154 23.267 66.6676 24.8359 66.6654 26.667V66.667C66.6654 68.5003 66.0131 70.0703 64.7087 71.377C63.4043 72.6837 61.8343 73.3359 59.9987 73.3337H19.9987ZM19.9987 66.667H59.9987V26.667H53.332V33.3337C53.332 34.2781 53.012 35.0703 52.372 35.7103C51.732 36.3503 50.9409 36.6692 49.9987 36.667C49.0565 36.6648 48.2654 36.3448 47.6254 35.707C46.9854 35.0692 46.6654 34.2781 46.6654 33.3337V26.667H33.332V33.3337C33.332 34.2781 33.012 35.0703 32.372 35.7103C31.732 36.3503 30.9409 36.6692 29.9987 36.667C29.0565 36.6648 28.2654 36.3448 27.6254 35.707C26.9854 35.0692 26.6654 34.2781 26.6654 33.3337V26.667H19.9987V66.667ZM33.332 20.0003H46.6654C46.6654 18.167 46.0131 16.5981 44.7087 15.2937C43.4043 13.9892 41.8343 13.3359 39.9987 13.3337C38.1631 13.3314 36.5943 13.9848 35.292 15.2937C33.9898 16.6025 33.3365 18.1714 33.332 20.0003Z" fill="black"/>
</svg>
