<svg width="80" height="80" viewBox="0 0 80 80" fill="none" xmlns="http://www.w3.org/2000/svg">
<path d="M63.668 25.9997C62.4013 24.333 60.4346 23.333 58.3346 23.333H50.0013V19.9997C50.0013 16.333 47.0013 13.333 43.3346 13.333H13.3346C9.66797 13.333 6.66797 16.333 6.66797 19.9997V53.333C6.66797 56.9997 9.66797 59.9997 13.3346 59.9997C13.3346 65.4997 17.8346 69.9997 23.3346 69.9997C28.8346 69.9997 33.3346 65.4997 33.3346 59.9997H46.668C46.668 65.4997 51.168 69.9997 56.668 69.9997C62.168 69.9997 66.668 65.4997 66.668 59.9997C70.3346 59.9997 73.3346 56.9997 73.3346 53.333V41.0997C73.3346 39.6663 72.868 38.233 72.0013 37.0997L63.668 25.9997ZM58.3346 29.9997L63.3346 36.6663H50.0013V29.9997H58.3346ZM23.3346 63.333C22.7496 63.3323 22.1749 63.1781 21.6681 62.8857C21.1613 62.5934 20.7401 62.1732 20.4466 61.6671C20.153 61.161 19.9974 60.5867 19.9953 60.0016C19.9932 59.4166 20.1447 58.8412 20.4346 58.333C21.668 56.233 24.968 56.233 26.2013 58.333C26.5013 58.833 26.6346 59.3997 26.6346 59.9663C26.6346 61.7997 25.1346 63.2997 23.3013 63.2997L23.3346 63.333ZM30.768 53.333C30.768 53.333 30.6013 53.1663 30.5013 53.0997C30.3013 52.8997 30.1013 52.733 29.9346 52.5663C29.5346 52.1997 29.1013 51.8663 28.668 51.5997C27.9706 51.153 27.2204 50.7947 26.4346 50.533C26.2013 50.4663 25.968 50.3663 25.7346 50.2997C24.968 50.0997 24.168 49.9997 23.3346 49.9997C22.0846 49.9997 21.7013 50.133 20.9346 50.2997C20.7013 50.3663 20.468 50.4663 20.2346 50.533C19.7013 50.6997 19.2013 50.8997 18.7346 51.1663C18.5013 51.2997 18.2346 51.433 18.0013 51.5997C17.568 51.8997 17.1346 52.1997 16.7346 52.5663C16.5346 52.733 16.3346 52.8997 16.1346 53.0997C16.068 53.1997 15.968 53.233 15.868 53.333H13.3013V19.9997H43.3013V53.333H30.7346H30.768ZM56.668 63.333C56.0829 63.3323 55.5083 63.1781 55.0015 62.8857C54.4947 62.5934 54.0734 62.1732 53.7799 61.6671C53.4864 61.161 53.3308 60.5867 53.3287 60.0016C53.3266 59.4166 53.4781 58.8412 53.768 58.333C55.0013 56.233 58.3013 56.233 59.5346 58.333C59.8346 58.833 59.968 59.3997 59.968 59.9663C59.968 61.7997 58.468 63.2997 56.6346 63.2997L56.668 63.333ZM66.668 53.333H64.1013C64.1013 53.333 63.9346 53.1663 63.8346 53.0997C63.6346 52.8997 63.4346 52.733 63.268 52.5663C62.868 52.1997 62.4346 51.8663 62.0013 51.5997C61.3039 51.153 60.5537 50.7947 59.768 50.533C59.5346 50.4663 59.3013 50.3663 59.068 50.2997C58.3013 50.0997 57.5013 49.9997 56.668 49.9997C55.418 49.9997 55.1013 50.133 54.3346 50.2997C54.1346 50.333 53.9346 50.3997 53.7346 50.4663C53.1346 50.6663 52.5346 50.8997 52.0013 51.1997L51.6013 51.3997C51.0346 51.733 50.5013 52.0997 50.0013 52.5663V43.3663H66.668V53.3663V53.333Z" fill="black"/>
</svg>
