<svg width="30" height="30" viewBox="0 0 30 30" fill="none" xmlns="http://www.w3.org/2000/svg">
<path d="M15.0037 26.25C13.4488 26.25 11.9862 25.955 10.6163 25.365C9.24708 24.7742 8.05583 23.9725 7.0425 22.96C6.02917 21.9475 5.22708 20.7575 4.63625 19.39C4.04542 18.0225 3.75 16.5604 3.75 15.0037C3.75 13.4471 4.04542 11.9846 4.63625 10.6163C5.22625 9.24708 6.02667 8.05583 7.0375 7.0425C8.04833 6.02917 9.23875 5.22708 10.6088 4.63625C11.9788 4.04542 13.4412 3.75 14.9963 3.75C16.5512 3.75 18.0138 4.04542 19.3837 4.63625C20.7529 5.22625 21.9442 6.02708 22.9575 7.03875C23.9708 8.05042 24.7729 9.24083 25.3638 10.61C25.9546 11.9792 26.25 13.4412 26.25 14.9963C26.25 16.5512 25.955 18.0138 25.365 19.3837C24.775 20.7537 23.9733 21.945 22.96 22.9575C21.9467 23.97 20.7567 24.7721 19.39 25.3638C18.0233 25.9554 16.5613 26.2508 15.0037 26.25Z" fill="black"/>
<path d="M8 14H20.25L15 8.75L15.66 8L22.16 14.5L15.66 21L15 20.25L20.25 15H8V14Z" fill="white"/>
</svg>
