<svg width="80" height="80" viewBox="0 0 80 80" fill="none" xmlns="http://www.w3.org/2000/svg">
<path d="M13.7487 68.1575H66.2487C73.2458 68.1575 76.7629 64.7104 76.7629 57.8132V22.2218C76.7629 15.3247 73.2458 11.8418 66.2487 11.8418H13.7487C6.75152 11.8418 3.23438 15.3247 3.23438 22.2218V57.8132C3.23438 64.7104 6.75009 68.1575 13.7487 68.1575ZM8.6258 22.5247C8.6258 19.0418 10.5015 17.2347 13.8487 17.2347H66.1815C69.4958 17.2347 71.3715 19.0418 71.3715 22.5247V25.3361H8.6258V22.5247ZM13.8487 62.7704C10.5001 62.7704 8.6258 60.9947 8.6258 57.5132V32.9361H71.3715V57.5118C71.3715 60.9932 69.4958 62.7689 66.1815 62.7689L13.8487 62.7704ZM17.6987 52.8575H25.9029C27.8787 52.8575 29.1844 51.5518 29.1844 49.6432V43.4489C29.1844 41.5747 27.8787 40.2347 25.9029 40.2347H17.6987C15.7229 40.2347 14.4172 41.5747 14.4172 43.4489V49.6432C14.4172 51.5518 15.7229 52.8575 17.6987 52.8575Z" fill="black"/>
</svg>
