<svg width="80" height="80" viewBox="0 0 80 80" fill="none" xmlns="http://www.w3.org/2000/svg">
<path fill-rule="evenodd" clip-rule="evenodd" d="M67.5 52.1052V27.3752L57.5 30.9452V41.2502C57.5 42.2448 57.1049 43.1986 56.4016 43.9019C55.6984 44.6051 54.7446 45.0002 53.75 45.0002C52.7554 45.0002 51.8016 44.6051 51.0984 43.9019C50.3951 43.1986 50 42.2448 50 41.2502V33.6252L38.75 37.6452V68.0852L62.635 59.1252C64.0638 58.589 65.2951 57.6297 66.1644 56.3754C67.0337 55.121 67.4996 53.6313 67.5 52.1052ZM56.23 23.4352L64.23 20.5802C63.9473 20.3921 63.6553 20.2186 63.355 20.0602L47.495 12.1352C46.5726 11.6741 45.5651 11.4081 44.5353 11.3539C43.5056 11.2997 42.4757 11.4585 41.51 11.8202L36.805 13.5852L55.425 22.8952C55.725 23.0452 55.9917 23.2252 56.225 23.4352M27.22 17.1752L46.61 26.8752L35.245 30.9302L16.22 21.4152C16.58 21.2052 16.9633 21.0236 17.37 20.8702L27.22 17.1752ZM31.25 37.3202L12.5 27.9452V53.2302C12.5 54.6238 12.8884 55.9898 13.6214 57.175C14.3544 58.3602 15.4032 59.3178 16.65 59.9402L31.25 67.2402V37.3202ZM5 27.8952C5 25.7152 5.47 23.6152 6.33 21.7152C6.48006 21.0158 6.82704 20.3739 7.33 19.8652C9.04 17.1652 11.605 15.0252 14.73 13.8502L38.885 4.80022C40.816 4.07592 42.8756 3.7576 44.9351 3.86513C46.9947 3.97267 49.0099 4.50376 50.855 5.42522L66.715 13.3552C69.2051 14.6018 71.299 16.517 72.7623 18.8863C74.2255 21.2556 75.0004 23.9855 75 26.7702V52.1052C74.9999 55.1589 74.0677 58.1398 72.3281 60.6496C70.5886 63.1593 68.1244 65.0784 65.265 66.1502L41.125 75.2002C39.1933 75.9252 37.1328 76.2439 35.0723 76.1364C33.0119 76.0289 30.9957 75.4974 29.15 74.5752L13.29 66.6452C10.799 65.3993 8.70402 63.4844 7.23984 61.115C5.77567 58.7457 5.00009 56.0155 5 53.2302V27.8952Z" fill="black"/>
</svg>
