<svg width="70" height="70" viewBox="0 0 70 70" fill="none" xmlns="http://www.w3.org/2000/svg">
<path d="M20.4154 40.833H25.155C25.5438 40.833 25.9211 40.7601 26.2866 40.6143C26.6522 40.4684 26.9798 40.2497 27.2695 39.958L40.9779 26.2497C41.4154 25.8122 41.744 25.3134 41.9637 24.7534C42.1834 24.1934 42.2923 23.647 42.2904 23.1143C42.2884 22.5815 42.1669 22.0594 41.9258 21.548C41.6847 21.0366 41.3687 20.5622 40.9779 20.1247L38.3529 17.3538C37.9154 16.9163 37.4293 16.5887 36.8945 16.3709C36.3598 16.1531 35.8008 16.0433 35.2175 16.0413C34.6827 16.0413 34.1363 16.1512 33.5783 16.3709C33.0202 16.5906 32.5215 16.9183 32.082 17.3538L18.3737 31.0622C18.082 31.3538 17.8633 31.6825 17.7175 32.048C17.5716 32.4136 17.4987 32.7898 17.4987 33.1768V37.9163C17.4987 38.7427 17.7787 39.4359 18.3387 39.9959C18.8987 40.5559 19.5909 40.835 20.4154 40.833ZM21.8737 36.458V33.6872L29.2383 26.3226L30.6966 27.6351L32.0091 29.0934L24.6445 36.458H21.8737ZM30.6966 27.6351L32.0091 29.0934L29.2383 26.3226L30.6966 27.6351ZM32.5925 40.833H49.582C50.4084 40.833 51.1016 40.553 51.6616 39.993C52.2216 39.433 52.5006 38.7408 52.4987 37.9163C52.4968 37.0919 52.2168 36.3997 51.6587 35.8397C51.1006 35.2797 50.4084 34.9997 49.582 34.9997H38.4258L32.5925 40.833ZM17.4987 52.4997L10.7904 59.208C9.86676 60.1316 8.80898 60.3387 7.61704 59.8293C6.42509 59.3198 5.83009 58.4079 5.83204 57.0934V11.6663C5.83204 10.0622 6.4037 8.6894 7.54704 7.54801C8.69037 6.40662 10.0631 5.83495 11.6654 5.83301H58.332C59.9362 5.83301 61.31 6.40467 62.4533 7.54801C63.5966 8.69134 64.1673 10.0641 64.1654 11.6663V46.6663C64.1654 48.2705 63.5947 49.6443 62.4533 50.7876C61.3119 51.9309 59.9381 52.5016 58.332 52.4997H17.4987ZM15.0195 46.6663H58.332V11.6663H11.6654V49.9476L15.0195 46.6663Z" fill="black"/>
</svg>
