<svg width="60" height="60" viewBox="0 0 60 60" fill="none" xmlns="http://www.w3.org/2000/svg">
<path fill-rule="evenodd" clip-rule="evenodd" d="M5.35714 10.7143C5.35714 9.82286 6.07714 9.10714 6.95571 9.10714H53.0443C53.9229 9.10714 54.6429 9.82286 54.6429 10.7143V19.7314C52.7124 20.665 51.0841 22.1237 49.9447 23.9403C48.8053 25.7569 48.201 27.8578 48.201 30.0021C48.201 32.1465 48.8053 34.2474 49.9447 36.064C51.0841 37.8806 52.7124 39.3393 54.6429 40.2729V49.2857C54.6434 49.4962 54.6025 49.7047 54.5225 49.8994C54.4425 50.0941 54.3249 50.2711 54.1764 50.4204C54.028 50.5696 53.8516 50.6881 53.6573 50.7692C53.4631 50.8503 53.2548 50.8923 53.0443 50.8929H6.95571C6.74522 50.8923 6.53691 50.8503 6.34265 50.7692C6.1484 50.6881 5.97202 50.5696 5.82358 50.4204C5.67514 50.2711 5.55754 50.0941 5.47751 49.8994C5.39748 49.7047 5.35658 49.4962 5.35714 49.2857V40.3029C7.30507 39.3765 8.95048 37.9169 10.1025 36.0933C11.2546 34.2698 11.8661 32.157 11.8661 30C11.8661 27.843 11.2546 25.7302 10.1025 23.9067C8.95048 22.0831 7.30507 20.6235 5.35714 19.6971V10.7143ZM6.95571 3.75C3.11143 3.75 0 6.87429 0 10.7143V21.5571C0 22.7743 0.822857 23.8371 1.99714 24.1457C3.29173 24.4845 4.43751 25.2428 5.25524 26.3021C6.07298 27.3614 6.51654 28.6618 6.51654 30C6.51654 31.3382 6.07298 32.6386 5.25524 33.6979C4.43751 34.7572 3.29173 35.5155 1.99714 35.8543C1.42518 36.0047 0.919093 36.3403 0.557822 36.8085C0.196552 37.2768 0.000413492 37.8514 0 38.4429L0 49.2857C0 53.13 3.11143 56.25 6.95571 56.25H53.0443C56.8886 56.25 60 53.13 60 49.2857V38.4257C59.9999 37.8378 59.8064 37.2663 59.4494 36.7993C59.0923 36.3323 58.5916 35.9957 58.0243 35.8414C56.7408 35.4942 55.6074 34.7339 54.7993 33.6781C53.9911 32.6222 53.5532 31.3296 53.5532 30C53.5532 28.6704 53.9911 27.3778 54.7993 26.3219C55.6074 25.2661 56.7408 24.5058 58.0243 24.1586C58.5916 24.0043 59.0923 23.6677 59.4494 23.2007C59.8064 22.7337 59.9999 22.1622 60 21.5743V10.7143C60 6.87429 56.8886 3.75 53.0443 3.75H6.95571ZM42.6086 17.3914C42.3598 17.1426 42.0645 16.9453 41.7395 16.8106C41.4145 16.676 41.0661 16.6066 40.7143 16.6066C40.3625 16.6066 40.0141 16.676 39.6891 16.8106C39.3641 16.9453 39.0687 17.1426 38.82 17.3914L17.3914 38.82C17.1427 39.0688 16.9453 39.3641 16.8107 39.6891C16.6761 40.0141 16.6068 40.3625 16.6068 40.7143C16.6068 41.0661 16.6761 41.4144 16.8107 41.7395C16.9453 42.0645 17.1427 42.3598 17.3914 42.6086C17.6402 42.8573 17.9355 43.0547 18.2605 43.1893C18.5856 43.3239 18.9339 43.3932 19.2857 43.3932C19.6375 43.3932 19.9859 43.3239 20.3109 43.1893C20.6359 43.0547 20.9312 42.8573 21.18 42.6086L42.6086 21.18C42.8574 20.9313 43.0547 20.6359 43.1894 20.3109C43.324 19.9859 43.3934 19.6375 43.3934 19.2857C43.3934 18.9339 43.324 18.5855 43.1894 18.2605C43.0547 17.9355 42.8574 17.6402 42.6086 17.3914ZM16.6071 21.4286C16.6071 20.7954 16.7319 20.1685 16.9742 19.5835C17.2165 18.9985 17.5716 18.467 18.0193 18.0193C18.467 17.5716 18.9985 17.2165 19.5835 16.9742C20.1685 16.7319 20.7954 16.6071 21.4286 16.6071C22.0617 16.6071 22.6887 16.7319 23.2737 16.9742C23.8586 17.2165 24.3901 17.5716 24.8378 18.0193C25.2855 18.467 25.6407 18.9985 25.883 19.5835C26.1253 20.1685 26.25 20.7954 26.25 21.4286C26.25 22.7073 25.742 23.9336 24.8378 24.8378C23.9336 25.742 22.7073 26.25 21.4286 26.25C20.1498 26.25 18.9235 25.742 18.0193 24.8378C17.1151 23.9336 16.6071 22.7073 16.6071 21.4286ZM38.5714 33.75C37.2927 33.75 36.0664 34.258 35.1622 35.1622C34.258 36.0664 33.75 37.2927 33.75 38.5714C33.75 39.8502 34.258 41.0765 35.1622 41.9807C36.0664 42.8849 37.2927 43.3929 38.5714 43.3929C39.8502 43.3929 41.0765 42.8849 41.9807 41.9807C42.8849 41.0765 43.3929 39.8502 43.3929 38.5714C43.3929 37.2927 42.8849 36.0664 41.9807 35.1622C41.0765 34.258 39.8502 33.75 38.5714 33.75Z" fill="black"/>
</svg>
