<svg width="80" height="80" viewBox="0 0 80 80" fill="none" xmlns="http://www.w3.org/2000/svg">
<path d="M77.5018 29.9998C77.5018 28.3422 76.8433 26.7524 75.6712 25.5803C74.4991 24.4082 72.9094 23.7498 71.2518 23.7498H65.9518C66.7239 22.197 67.1179 20.4838 67.1018 18.7498C67.1217 17.2795 66.8492 15.82 66.3003 14.4559C65.7514 13.0918 64.9369 11.8504 63.9042 10.8037C62.8715 9.75706 61.6411 8.926 60.2845 8.35881C58.9279 7.79163 57.4722 7.49962 56.0018 7.49976C52.895 7.39144 49.8094 8.05116 47.0184 9.42046C44.2275 10.7898 41.8175 12.8263 40.0018 15.3498C38.1861 12.8263 35.7761 10.7898 32.9852 9.42046C30.1942 8.05116 27.1086 7.39144 24.0018 7.49976C21.0579 7.49976 18.2346 8.66922 16.1529 10.7509C14.0713 12.8325 12.9018 15.6559 12.9018 18.5998C12.8857 20.3338 13.2797 22.047 14.0518 23.5998H8.7518C7.91826 23.5995 7.0931 23.766 6.32487 24.0894C5.55664 24.4129 4.86086 24.8867 4.27849 25.4831C3.69612 26.0794 3.23892 26.7862 2.9338 27.5619C2.62868 28.3376 2.4818 29.1665 2.5018 29.9998V42.4998H8.7518V66.4498C8.80375 68.0725 9.4851 69.6113 10.6516 70.7404C11.8181 71.8696 13.3783 72.5006 15.0018 72.4998H65.0018C66.6594 72.4998 68.2491 71.8413 69.4212 70.6692C70.5933 69.4971 71.2518 67.9074 71.2518 66.2498V42.2998H77.5018V29.9998ZM56.0018 13.7498C57.3279 13.7498 58.5997 14.2765 59.5373 15.2142C60.475 16.1519 61.0018 17.4237 61.0018 18.7498C61.0018 20.0758 60.475 21.3476 59.5373 22.2853C58.5997 23.223 57.3279 23.7498 56.0018 23.7498H43.4018C43.8478 20.7984 45.3957 18.1256 47.7338 16.27C50.0718 14.4145 53.0262 13.5139 56.0018 13.7498ZM24.0018 13.7498C26.9774 13.5139 29.9318 14.4145 32.2698 16.27C34.6079 18.1256 36.1558 20.7984 36.6018 23.7498H24.0018C22.8971 23.498 21.9107 22.8785 21.2042 21.9928C20.4976 21.1071 20.1128 20.0077 20.1128 18.8748C20.1128 17.7418 20.4976 16.6424 21.2042 15.7567C21.9107 14.871 22.8971 14.2515 24.0018 13.9998V13.7498ZM8.7518 29.9998H30.6018V36.0498H8.7518V29.9998ZM30.6018 66.4498H15.0018V42.2998H30.6018V66.4498ZM36.9018 66.4498V29.9998H43.1018V66.4498H36.9018ZM65.0018 66.4498H49.4018V42.2998H65.0018V66.4498ZM71.2518 36.4498H49.4018V29.9998H71.2518V36.4498Z" fill="black"/>
</svg>
