<svg width="200" height="75" viewBox="0 0 200 75" fill="none" xmlns="http://www.w3.org/2000/svg">
<g clip-path="url(#clip0_1018_5245)">
<path d="M33.499 37.2585C33.499 41.3023 29.7525 44.5374 25.0693 44.5374C20.3861 44.5374 16.6395 41.3023 16.6395 37.2585C16.6395 33.2146 20.3861 29.9796 25.0693 29.9796H33.499V37.2585ZM42.8654 7.33398H33.499V22.0536C30.3144 22.0536 27.1299 22.0536 25.0693 22.0536C15.3282 22.0536 7.46045 28.8473 7.46045 37.2585C7.46045 45.6697 15.3282 52.4634 25.0693 52.4634C34.8103 52.4634 42.6781 45.6697 42.6781 37.2585C42.6781 33.0529 42.6781 22.0536 42.6781 22.0536L42.8654 7.33398Z" fill="white"/>
<path d="M135.967 44.5366C140.651 44.5366 144.397 41.3015 144.397 37.2576C144.397 33.2138 140.651 29.9787 135.967 29.9787C131.284 29.9787 127.538 33.2138 127.538 37.2576C127.725 41.3015 131.472 44.5366 135.967 44.5366ZM118.546 37.2576C118.546 28.8464 126.414 22.0527 136.155 22.0527C145.896 22.0527 153.764 28.8464 153.764 37.2576C153.764 45.6688 145.896 52.4625 136.155 52.4625C126.414 52.4625 118.546 45.6688 118.546 37.2576Z" fill="white"/>
<path d="M183.174 37.2576C183.174 33.3755 179.427 30.1404 174.931 30.1404C170.435 30.1404 166.689 33.3755 166.689 37.2576C166.689 39.1987 166.689 51.8155 166.689 51.8155C162.006 51.8155 157.51 51.8155 157.51 51.8155C157.51 51.8155 157.51 41.4632 157.51 37.2576C157.51 28.8464 165.378 22.0527 175.119 22.0527C184.86 22.0527 192.727 28.8464 192.727 37.2576C192.727 41.4632 192.727 51.8155 192.727 51.8155C192.727 51.8155 188.232 51.8155 183.548 51.8155C183.174 51.8155 183.174 39.1987 183.174 37.2576Z" fill="white"/>
<path d="M97.0032 32.0813C95.6919 31.2726 96.0666 29.9785 98.3145 29.4933C101.124 28.8463 105.995 29.3315 110.116 30.9491L114.425 25.7729C112.551 24.4789 108.43 22.6996 102.436 22.3761C102.436 22.3761 92.32 21.2438 88.1988 27.8757C88.1988 27.8757 84.6396 34.0224 91.758 37.9045C96.0666 40.1691 103.56 41.1396 105.995 42.1101C107.868 43.0806 107.306 44.8599 104.496 45.3452C99.6258 46.3157 93.2567 43.8894 91.1961 42.5954L86.7002 47.9332C89.6974 49.8743 93.444 51.6536 99.4385 52.4624C99.4385 52.4624 108.992 53.9182 114.237 48.2568C115.174 47.2862 119.483 40.3308 110.865 36.287C106.37 34.1842 99.2512 33.2136 97.0032 32.0813Z" fill="white"/>
<path d="M53.9177 57.6381C54.2923 57.7999 58.6009 60.3879 62.7221 60.3879C72.8378 60.5497 73.3997 51.4914 73.3997 49.3886C71.5265 51.1679 67.5926 52.3002 65.1573 52.3002C55.4163 52.3002 47.7358 45.8301 47.7358 37.4188C47.7358 33.2132 47.7358 22.6992 47.7358 22.6992C47.7358 22.6992 52.2317 22.6992 56.9149 22.6992C56.9149 22.6992 56.9149 35.6395 56.9149 37.4188C56.9149 41.3009 60.6615 44.536 65.1573 44.536C69.6532 44.536 73.3997 41.3009 73.3997 37.4188C73.3997 35.8013 73.3997 22.6992 73.3997 22.6992C78.0829 22.6992 82.5788 22.6992 82.5788 22.6992V37.4188C82.5788 50.5209 83.3281 63.9465 68.5292 67.0198C57.4769 69.2844 49.6091 63.2995 49.0471 62.976L53.9177 57.6381Z" fill="white"/>
</g>
<defs>
<clipPath id="clip0_1018_5245">
<rect width="185.455" height="60.9813" fill="white" transform="translate(7.27295 7.00977)"/>
</clipPath>
</defs>
</svg>
