<svg width="132" height="50" viewBox="0 0 132 50" fill="none" xmlns="http://www.w3.org/2000/svg">
<g clip-path="url(#clip0_410_1016)">
<path d="M22.1088 24.8383C22.1088 27.5342 19.6361 29.691 16.5452 29.691C13.4542 29.691 10.9815 27.5342 10.9815 24.8383C10.9815 22.1424 13.4542 19.9857 16.5452 19.9857H22.1088V24.8383ZM28.2906 4.88867H22.1088V14.7018C20.007 14.7018 17.9052 14.7018 16.5452 14.7018C10.1161 14.7018 4.92334 19.2309 4.92334 24.8383C4.92334 30.4458 10.1161 34.9749 16.5452 34.9749C22.9743 34.9749 28.167 30.4458 28.167 24.8383C28.167 22.0346 28.167 14.7018 28.167 14.7018L28.2906 4.88867Z" fill="white"/>
<path d="M89.7379 29.6923C92.8288 29.6923 95.3016 27.5356 95.3016 24.8397C95.3016 22.1438 92.8288 19.9871 89.7379 19.9871C86.647 19.9871 84.1743 22.1438 84.1743 24.8397C84.2979 27.5356 86.7707 29.6923 89.7379 29.6923ZM78.2397 24.8397C78.2397 19.2322 83.4325 14.7031 89.8616 14.7031C96.2907 14.7031 101.483 19.2322 101.483 24.8397C101.483 30.4472 96.2907 34.9763 89.8616 34.9763C83.4325 34.9763 78.2397 30.4472 78.2397 24.8397Z" fill="white"/>
<path d="M120.894 24.8397C120.894 22.2517 118.422 20.0949 115.454 20.0949C112.487 20.0949 110.014 22.2517 110.014 24.8397C110.014 26.1337 110.014 34.545 110.014 34.545C106.923 34.545 103.956 34.545 103.956 34.545C103.956 34.545 103.956 27.6435 103.956 24.8397C103.956 19.2322 109.149 14.7031 115.578 14.7031C122.007 14.7031 127.2 19.2322 127.2 24.8397C127.2 27.6435 127.2 34.545 127.2 34.545C127.2 34.545 124.232 34.545 121.142 34.545C120.894 34.545 120.894 26.1337 120.894 24.8397Z" fill="white"/>
<path d="M64.0217 21.3882C63.1562 20.849 63.4035 19.9863 64.8871 19.6628C66.7417 19.2315 69.9562 19.555 72.6762 20.6334L75.5199 17.1826C74.2835 16.3199 71.5635 15.1337 67.6071 14.9181C67.6071 14.9181 60.9308 14.1632 58.2108 18.5845C58.2108 18.5845 55.8617 22.6822 60.5599 25.2703C63.4035 26.78 68.349 27.427 69.9562 28.0741C71.1926 28.7211 70.8217 29.9073 68.9671 30.2308C65.7526 30.8778 61.549 29.2602 60.189 28.3976L57.2217 31.9562C59.1999 33.2502 61.6726 34.4364 65.629 34.9756C65.629 34.9756 71.9344 35.9461 75.3962 32.1718C76.0144 31.5248 78.858 26.8879 73.1708 24.192C70.2035 22.7901 65.5053 22.1431 64.0217 21.3882Z" fill="white"/>
<path d="M35.5854 38.4274C35.8326 38.5352 38.6763 40.2606 41.3963 40.2606C48.0726 40.3684 48.4436 34.3296 48.4436 32.9277C47.2072 34.1139 44.6108 34.8688 43.0036 34.8688C36.5745 34.8688 31.5054 30.5553 31.5054 24.9478C31.5054 22.1441 31.5054 15.1348 31.5054 15.1348C31.5054 15.1348 34.4726 15.1348 37.5636 15.1348C37.5636 15.1348 37.5636 23.7617 37.5636 24.9478C37.5636 27.5359 40.0363 29.6926 43.0036 29.6926C45.9708 29.6926 48.4436 27.5359 48.4436 24.9478C48.4436 23.8695 48.4436 15.1348 48.4436 15.1348C51.5345 15.1348 54.5017 15.1348 54.5017 15.1348V24.9478C54.5017 33.6826 54.9963 42.633 45.229 44.6818C37.9345 46.1916 32.7417 42.2016 32.3708 41.9859L35.5854 38.4274Z" fill="white"/>
</g>
<defs>
<clipPath id="clip0_410_1016">
<rect width="122.4" height="40.6542" fill="white" transform="translate(4.7998 4.67383)"/>
</clipPath>
</defs>
</svg>
