<svg width="132" height="50" viewBox="0 0 132 50" fill="none" xmlns="http://www.w3.org/2000/svg">
<g clip-path="url(#clip0_1654_10786)">
<path d="M22.1088 24.8383C22.1088 27.5342 19.6361 29.691 16.5452 29.691C13.4542 29.691 10.9815 27.5342 10.9815 24.8383C10.9815 22.1424 13.4542 19.9857 16.5452 19.9857H22.1088V24.8383ZM28.2906 4.88867H22.1088V14.7018C20.007 14.7018 17.9052 14.7018 16.5452 14.7018C10.1161 14.7018 4.92334 19.2309 4.92334 24.8383C4.92334 30.4458 10.1161 34.9749 16.5452 34.9749C22.9743 34.9749 28.167 30.4458 28.167 24.8383C28.167 22.0346 28.167 14.7018 28.167 14.7018L28.2906 4.88867Z" fill="#333333"/>
<path d="M89.7379 29.6904C92.8288 29.6904 95.3016 27.5337 95.3016 24.8378C95.3016 22.1419 92.8288 19.9851 89.7379 19.9851C86.647 19.9851 84.1743 22.1419 84.1743 24.8378C84.2979 27.5337 86.7707 29.6904 89.7379 29.6904ZM78.2397 24.8378C78.2397 19.2303 83.4325 14.7012 89.8616 14.7012C96.2907 14.7012 101.483 19.2303 101.483 24.8378C101.483 30.4452 96.2907 34.9744 89.8616 34.9744C83.4325 34.9744 78.2397 30.4452 78.2397 24.8378Z" fill="#333333"/>
<path d="M120.894 24.8378C120.894 22.2497 118.422 20.093 115.454 20.093C112.487 20.093 110.014 22.2497 110.014 24.8378C110.014 26.1318 110.014 34.543 110.014 34.543C106.923 34.543 103.956 34.543 103.956 34.543C103.956 34.543 103.956 27.6415 103.956 24.8378C103.956 19.2303 109.149 14.7012 115.578 14.7012C122.007 14.7012 127.2 19.2303 127.2 24.8378C127.2 27.6415 127.2 34.543 127.2 34.543C127.2 34.543 124.232 34.543 121.142 34.543C120.894 34.543 120.894 26.1318 120.894 24.8378Z" fill="#333333"/>
<path d="M64.0217 21.3872C63.1562 20.8481 63.4035 19.9854 64.8871 19.6619C66.7417 19.2305 69.9562 19.554 72.6762 20.6324L75.5199 17.1816C74.2835 16.3189 71.5635 15.1327 67.6071 14.9171C67.6071 14.9171 60.9308 14.1622 58.2108 18.5835C58.2108 18.5835 55.8617 22.6813 60.5599 25.2693C63.4035 26.779 68.349 27.4261 69.9562 28.0731C71.1926 28.7201 70.8217 29.9063 68.9671 30.2298C65.7526 30.8768 61.549 29.2593 60.189 28.3966L57.2217 31.9552C59.1999 33.2492 61.6726 34.4354 65.629 34.9746C65.629 34.9746 71.9344 35.9451 75.3962 32.1708C76.0144 31.5238 78.858 26.8869 73.1708 24.191C70.2035 22.7891 65.5053 22.1421 64.0217 21.3872Z" fill="#333333"/>
<path d="M35.5854 38.4254C35.8326 38.5332 38.6763 40.2586 41.3963 40.2586C48.0726 40.3665 48.4436 34.3276 48.4436 32.9258C47.2072 34.112 44.6108 34.8668 43.0036 34.8668C36.5745 34.8668 31.5054 30.5534 31.5054 24.9459C31.5054 22.1422 31.5054 15.1328 31.5054 15.1328C31.5054 15.1328 34.4726 15.1328 37.5636 15.1328C37.5636 15.1328 37.5636 23.7597 37.5636 24.9459C37.5636 27.534 40.0363 29.6907 43.0036 29.6907C45.9708 29.6907 48.4436 27.534 48.4436 24.9459C48.4436 23.8675 48.4436 15.1328 48.4436 15.1328C51.5345 15.1328 54.5017 15.1328 54.5017 15.1328V24.9459C54.5017 33.6806 54.9963 42.631 45.229 44.6799C37.9345 46.1896 32.7417 42.1997 32.3708 41.984L35.5854 38.4254Z" fill="#333333"/>
</g>
<defs>
<clipPath id="clip0_1654_10786">
<rect width="122.4" height="40.6542" fill="white" transform="translate(4.7998 4.67285)"/>
</clipPath>
</defs>
</svg>
